<mxfile host="app.diagrams.net" agent="Mozilla/5.0 (Windows NT 10.0; Win64; x64; rv:130.0) Gecko/20100101 Firefox/130.0" version="24.7.17">
  <diagram name="Général" id="13e1069c-82ec-6db2-03f1-153e76fe0fe0">
    <mxGraphModel dx="1222" dy="606" grid="1" gridSize="10" guides="1" tooltips="1" connect="1" arrows="1" fold="1" page="1" pageScale="1" pageWidth="1100" pageHeight="850" background="none" math="0" shadow="0">
      <root>
        <mxCell id="0" />
        <mxCell id="1" parent="0" />
        <mxCell id="5uI6rMcFocWP82XlIf4A-5" value="" style="rounded=1;whiteSpace=wrap;html=1;fillColor=none;strokeColor=#808080;arcSize=8;strokeWidth=2;" parent="1" vertex="1">
          <mxGeometry x="30" y="1341" width="1370" height="309" as="geometry" />
        </mxCell>
        <mxCell id="5uI6rMcFocWP82XlIf4A-4" value="" style="rounded=1;whiteSpace=wrap;html=1;fillColor=none;strokeColor=#808080;arcSize=6;strokeWidth=2;" parent="1" vertex="1">
          <mxGeometry x="30" y="790" width="1370" height="540" as="geometry" />
        </mxCell>
        <mxCell id="5uI6rMcFocWP82XlIf4A-2" value="" style="rounded=1;whiteSpace=wrap;html=1;fillColor=none;strokeColor=#808080;arcSize=8;strokeWidth=2;" parent="1" vertex="1">
          <mxGeometry x="30" y="91" width="1370" height="399" as="geometry" />
        </mxCell>
        <mxCell id="Fw0xiVRTGZyl2yXm3xrn-41" value="&lt;b&gt;SI-ESMS&lt;/b&gt;&lt;br&gt;Producteur / Consommateur" style="shape=umlLifeline;perimeter=lifelinePerimeter;whiteSpace=wrap;html=1;container=1;collapsible=0;recursiveResize=0;outlineConnect=0;rounded=1;shadow=0;comic=0;labelBackgroundColor=none;strokeWidth=1;fontFamily=Verdana;fontSize=12;align=center;fillColor=#ffe6cc;strokeColor=#d79b00;" parent="1" vertex="1">
          <mxGeometry x="1241" y="20" width="160" height="1780" as="geometry" />
        </mxCell>
        <mxCell id="5uI6rMcFocWP82XlIf4A-3" value="" style="rounded=1;whiteSpace=wrap;html=1;fillColor=none;strokeColor=#808080;arcSize=10;strokeWidth=2;" parent="Fw0xiVRTGZyl2yXm3xrn-41" vertex="1">
          <mxGeometry x="-1210" y="480" width="1370" height="280" as="geometry" />
        </mxCell>
        <mxCell id="Fw0xiVRTGZyl2yXm3xrn-164" value="" style="html=1;points=[];perimeter=orthogonalPerimeter;rounded=0;shadow=0;comic=0;labelBackgroundColor=none;strokeWidth=1;fontFamily=Verdana;fontSize=12;align=center;fillColor=#ffe6cc;strokeColor=#d79b00;" parent="Fw0xiVRTGZyl2yXm3xrn-41" vertex="1">
          <mxGeometry x="76" y="540" width="10" height="70" as="geometry" />
        </mxCell>
        <mxCell id="Fw0xiVRTGZyl2yXm3xrn-183" value="" style="html=1;points=[];perimeter=orthogonalPerimeter;rounded=0;shadow=0;comic=0;labelBackgroundColor=none;strokeWidth=1;fontFamily=Verdana;fontSize=12;align=center;fillColor=#ffe6cc;strokeColor=#d79b00;" parent="Fw0xiVRTGZyl2yXm3xrn-41" vertex="1">
          <mxGeometry x="76" y="1392" width="10" height="70" as="geometry" />
        </mxCell>
        <mxCell id="Fw0xiVRTGZyl2yXm3xrn-189" value="" style="html=1;points=[];perimeter=orthogonalPerimeter;rounded=0;shadow=0;comic=0;labelBackgroundColor=none;strokeWidth=1;fontFamily=Verdana;fontSize=12;align=center;fillColor=#ffe6cc;strokeColor=#d79b00;" parent="Fw0xiVRTGZyl2yXm3xrn-41" vertex="1">
          <mxGeometry x="76" y="1533" width="10" height="70" as="geometry" />
        </mxCell>
        <mxCell id="Fw0xiVRTGZyl2yXm3xrn-178" value="" style="html=1;points=[];perimeter=orthogonalPerimeter;rounded=0;shadow=0;comic=0;labelBackgroundColor=none;strokeWidth=1;fontFamily=Verdana;fontSize=12;align=center;fillColor=#ffe6cc;strokeColor=#d79b00;" parent="Fw0xiVRTGZyl2yXm3xrn-41" vertex="1">
          <mxGeometry x="76" y="670" width="10" height="70" as="geometry" />
        </mxCell>
        <mxCell id="5Fo1NMAUC6NLCG_92BuU-7" value="" style="html=1;points=[];perimeter=orthogonalPerimeter;rounded=0;shadow=0;comic=0;labelBackgroundColor=none;strokeWidth=1;fontFamily=Verdana;fontSize=12;align=center;fillColor=#ffe6cc;strokeColor=#d79b00;" parent="Fw0xiVRTGZyl2yXm3xrn-41" vertex="1">
          <mxGeometry x="76" y="955" width="10" height="70" as="geometry" />
        </mxCell>
        <mxCell id="5Fo1NMAUC6NLCG_92BuU-16" value="&lt;div style=&quot;&quot;&gt;&lt;span style=&quot;background-color: rgb(255, 255, 255); color: rgb(51, 0, 0);&quot;&gt;Flux ESMS 1.4 : ResultatConsultationPersonneOrienteeDecision&lt;/span&gt;&lt;/div&gt;&lt;div style=&quot;background-color: rgb(255, 255, 255);&quot;&gt;200 OK&lt;/div&gt;&lt;div style=&quot;color: rgb(51, 0, 0);&quot;&gt;Ressource &lt;b&gt;ESMSdocumentReference &lt;/b&gt;avec &lt;b&gt;CDA portant les données de l&#39;individu et la&amp;nbsp;&lt;/b&gt;&lt;/div&gt;&lt;div style=&quot;color: rgb(51, 0, 0);&quot;&gt;&lt;b&gt;décision&lt;/b&gt;&lt;/div&gt;" style="text;html=1;align=left;verticalAlign=middle;resizable=0;points=[];autosize=1;strokeColor=none;fillColor=none;fontSize=11;fontFamily=Helvetica;fontColor=#FF0000;" parent="Fw0xiVRTGZyl2yXm3xrn-41" vertex="1">
          <mxGeometry x="-431" y="1094" width="470" height="70" as="geometry" />
        </mxCell>
        <mxCell id="5Fo1NMAUC6NLCG_92BuU-8" value="" style="html=1;points=[];perimeter=orthogonalPerimeter;rounded=0;shadow=0;comic=0;labelBackgroundColor=none;strokeWidth=1;fontFamily=Verdana;fontSize=12;align=center;fillColor=#ffe6cc;strokeColor=#d79b00;" parent="Fw0xiVRTGZyl2yXm3xrn-41" vertex="1">
          <mxGeometry x="76" y="1090" width="10" height="70" as="geometry" />
        </mxCell>
        <mxCell id="5Fo1NMAUC6NLCG_92BuU-6" value="" style="html=1;points=[];perimeter=orthogonalPerimeter;rounded=0;shadow=0;comic=0;labelBackgroundColor=none;strokeWidth=1;fontFamily=Verdana;fontSize=12;align=center;fillColor=#ffe6cc;strokeColor=#d79b00;" parent="Fw0xiVRTGZyl2yXm3xrn-41" vertex="1">
          <mxGeometry x="76" y="1217" width="10" height="70" as="geometry" />
        </mxCell>
        <mxCell id="Fw0xiVRTGZyl2yXm3xrn-141" value="" style="html=1;points=[];perimeter=orthogonalPerimeter;rounded=0;shadow=0;comic=0;labelBackgroundColor=none;strokeWidth=1;fontFamily=Verdana;fontSize=12;align=center;fillColor=#ffe6cc;strokeColor=#d79b00;" parent="Fw0xiVRTGZyl2yXm3xrn-41" vertex="1">
          <mxGeometry x="76" y="380" width="10" height="70" as="geometry" />
        </mxCell>
        <mxCell id="Fw0xiVRTGZyl2yXm3xrn-127" value="&lt;font style=&quot;font-size: 14px;&quot;&gt;&lt;b&gt;Processus&lt;/b&gt;&lt;br&gt;Examiner les dossiers&lt;/font&gt;" style="text;html=1;align=center;verticalAlign=middle;resizable=0;points=[];autosize=1;strokeColor=none;fillColor=none;fontSize=18;" parent="Fw0xiVRTGZyl2yXm3xrn-41" vertex="1">
          <mxGeometry x="-1175" y="580" width="160" height="60" as="geometry" />
        </mxCell>
        <mxCell id="Fw0xiVRTGZyl2yXm3xrn-44" value="&lt;b&gt;SI-MDPH&lt;br&gt;&lt;/b&gt;Producteur / Consommateur" style="shape=umlLifeline;perimeter=lifelinePerimeter;whiteSpace=wrap;html=1;container=1;collapsible=0;recursiveResize=0;outlineConnect=0;rounded=1;shadow=0;comic=0;labelBackgroundColor=none;strokeWidth=1;fontFamily=Verdana;fontSize=12;align=center;fillColor=#d5e8d4;strokeColor=#82b366;" parent="1" vertex="1">
          <mxGeometry x="207" y="20" width="142" height="1770" as="geometry" />
        </mxCell>
        <mxCell id="Fw0xiVRTGZyl2yXm3xrn-45" value="" style="html=1;points=[];perimeter=orthogonalPerimeter;rounded=0;shadow=0;comic=0;labelBackgroundColor=none;strokeWidth=1;fontFamily=Verdana;fontSize=12;align=center;fillColor=#d5e8d4;strokeColor=#82b366;" parent="Fw0xiVRTGZyl2yXm3xrn-44" vertex="1">
          <mxGeometry x="66" y="124" width="10" height="70" as="geometry" />
        </mxCell>
        <mxCell id="Fw0xiVRTGZyl2yXm3xrn-117" value="" style="html=1;points=[];perimeter=orthogonalPerimeter;rounded=0;shadow=0;comic=0;labelBackgroundColor=none;strokeWidth=1;fontFamily=Verdana;fontSize=12;align=center;fillColor=#d5e8d4;strokeColor=#82b366;" parent="Fw0xiVRTGZyl2yXm3xrn-44" vertex="1">
          <mxGeometry x="66" y="1532" width="10" height="70" as="geometry" />
        </mxCell>
        <mxCell id="Fw0xiVRTGZyl2yXm3xrn-40" value="&lt;b&gt;SI-SDO&lt;br&gt;&lt;/b&gt;Gestionnaire" style="shape=umlLifeline;perimeter=lifelinePerimeter;whiteSpace=wrap;html=1;container=1;collapsible=0;recursiveResize=0;outlineConnect=0;rounded=1;shadow=0;comic=0;labelBackgroundColor=none;strokeWidth=1;fontFamily=Verdana;fontSize=12;align=center;fillColor=#dae8fc;strokeColor=#6c8ebf;" parent="1" vertex="1">
          <mxGeometry x="721" y="20" width="140" height="1620" as="geometry" />
        </mxCell>
        <mxCell id="Fw0xiVRTGZyl2yXm3xrn-91" value="" style="html=1;points=[];perimeter=orthogonalPerimeter;rounded=0;shadow=0;comic=0;labelBackgroundColor=none;strokeWidth=1;fontFamily=Verdana;fontSize=12;align=center;fillColor=#dae8fc;strokeColor=#6c8ebf;" parent="Fw0xiVRTGZyl2yXm3xrn-40" vertex="1">
          <mxGeometry x="64" y="124" width="10" height="70" as="geometry" />
        </mxCell>
        <mxCell id="Fw0xiVRTGZyl2yXm3xrn-147" value="" style="html=1;points=[];perimeter=orthogonalPerimeter;rounded=0;shadow=0;comic=0;labelBackgroundColor=none;strokeWidth=1;fontFamily=Verdana;fontSize=12;align=center;fillColor=#dae8fc;strokeColor=#6c8ebf;" parent="Fw0xiVRTGZyl2yXm3xrn-40" vertex="1">
          <mxGeometry x="64" y="383" width="10" height="70" as="geometry" />
        </mxCell>
        <mxCell id="Fw0xiVRTGZyl2yXm3xrn-165" value="" style="html=1;points=[];perimeter=orthogonalPerimeter;rounded=0;shadow=0;comic=0;labelBackgroundColor=none;strokeWidth=1;fontFamily=Verdana;fontSize=12;align=center;fillColor=#dae8fc;strokeColor=#6c8ebf;" parent="Fw0xiVRTGZyl2yXm3xrn-40" vertex="1">
          <mxGeometry x="64" y="540" width="10" height="70" as="geometry" />
        </mxCell>
        <mxCell id="Fw0xiVRTGZyl2yXm3xrn-177" value="" style="html=1;points=[];perimeter=orthogonalPerimeter;rounded=0;shadow=0;comic=0;labelBackgroundColor=none;strokeWidth=1;fontFamily=Verdana;fontSize=12;align=center;fillColor=#dae8fc;strokeColor=#6c8ebf;" parent="Fw0xiVRTGZyl2yXm3xrn-40" vertex="1">
          <mxGeometry x="64" y="670" width="10" height="70" as="geometry" />
        </mxCell>
        <mxCell id="Fw0xiVRTGZyl2yXm3xrn-107" value="" style="html=1;points=[];perimeter=orthogonalPerimeter;rounded=0;shadow=0;comic=0;labelBackgroundColor=none;strokeWidth=1;fontFamily=Verdana;fontSize=12;align=center;fillColor=#dae8fc;strokeColor=#6c8ebf;" parent="Fw0xiVRTGZyl2yXm3xrn-40" vertex="1">
          <mxGeometry x="64" y="832.5" width="10" height="70" as="geometry" />
        </mxCell>
        <mxCell id="Fw0xiVRTGZyl2yXm3xrn-184" value="" style="html=1;points=[];perimeter=orthogonalPerimeter;rounded=0;shadow=0;comic=0;labelBackgroundColor=none;strokeWidth=1;fontFamily=Verdana;fontSize=12;align=center;fillColor=#dae8fc;strokeColor=#6c8ebf;" parent="Fw0xiVRTGZyl2yXm3xrn-40" vertex="1">
          <mxGeometry x="64" y="1392" width="10" height="70" as="geometry" />
        </mxCell>
        <mxCell id="Fw0xiVRTGZyl2yXm3xrn-142" value="" style="html=1;points=[];perimeter=orthogonalPerimeter;rounded=0;shadow=0;comic=0;labelBackgroundColor=none;strokeWidth=1;fontFamily=Verdana;fontSize=12;align=center;fillColor=#dae8fc;strokeColor=#6c8ebf;" parent="Fw0xiVRTGZyl2yXm3xrn-40" vertex="1">
          <mxGeometry x="64" y="248" width="10" height="70" as="geometry" />
        </mxCell>
        <mxCell id="Fw0xiVRTGZyl2yXm3xrn-116" value="" style="html=1;points=[];perimeter=orthogonalPerimeter;rounded=0;shadow=0;comic=0;labelBackgroundColor=none;strokeWidth=1;fontFamily=Verdana;fontSize=12;align=center;fillColor=#dae8fc;strokeColor=#6c8ebf;" parent="Fw0xiVRTGZyl2yXm3xrn-40" vertex="1">
          <mxGeometry x="64" y="1532" width="10" height="70" as="geometry" />
        </mxCell>
        <mxCell id="Fw0xiVRTGZyl2yXm3xrn-48" value="&lt;div style=&quot;&quot;&gt;&lt;span style=&quot;color: rgb(0, 0, 0); background-color: initial;&quot;&gt;Flux SDO 1.1 : TransmissionDossier&lt;/span&gt;&lt;/div&gt;&lt;div style=&quot;&quot;&gt;&lt;span style=&quot;background-color: initial;&quot;&gt;&lt;font color=&quot;#ff0000&quot;&gt;POST&lt;/font&gt;&lt;/span&gt;&lt;/div&gt;&lt;div style=&quot;color: rgb(0, 0, 0);&quot;&gt;&lt;span style=&quot;background-color: initial;&quot;&gt;Ressource &lt;b&gt;SDODocumentReference &lt;/b&gt;transmettant un document CDA&lt;/span&gt;&lt;/div&gt;&lt;div style=&quot;color: rgb(0, 0, 0);&quot;&gt;&lt;span style=&quot;background-color: initial;&quot;&gt;Token d&#39;authentification&lt;/span&gt;&lt;/div&gt;" style="text;html=1;align=left;verticalAlign=middle;resizable=0;points=[];autosize=1;strokeColor=none;fillColor=none;fontSize=11;fontFamily=Helvetica;fontColor=#330000;" parent="1" vertex="1">
          <mxGeometry x="294" y="89" width="370" height="70" as="geometry" />
        </mxCell>
        <mxCell id="Fw0xiVRTGZyl2yXm3xrn-49" value="&lt;div style=&quot;&quot;&gt;&lt;span style=&quot;background-color: rgb(255, 255, 255); color: rgb(51, 0, 0);&quot;&gt;Flux SDO 1.2 : RésultatTransmissionDossier&lt;/span&gt;&lt;/div&gt;&lt;span style=&quot;background-color: rgb(255, 255, 255);&quot;&gt;&lt;div style=&quot;&quot;&gt;201 created&lt;br&gt;&lt;/div&gt;&lt;div style=&quot;&quot;&gt;&lt;font color=&quot;#330000&quot;&gt;Ressource &lt;b&gt;SDODocumentReference&lt;/b&gt;, incluant identifiant technique&lt;/font&gt;&lt;/div&gt;&lt;/span&gt;" style="text;html=1;align=left;verticalAlign=middle;resizable=0;points=[];autosize=1;strokeColor=none;fillColor=none;fontSize=11;fontFamily=Helvetica;fontColor=#FF0000;" parent="1" vertex="1">
          <mxGeometry x="294" y="165" width="350" height="50" as="geometry" />
        </mxCell>
        <mxCell id="Fw0xiVRTGZyl2yXm3xrn-61" value="&lt;div style=&quot;&quot;&gt;&lt;span style=&quot;color: rgb(0, 0, 0); background-color: initial;&quot;&gt;Flux SDO 3.1 : RechercheNotificationESMS&lt;/span&gt;&lt;/div&gt;&lt;div&gt;&lt;span style=&quot;background-color: initial;&quot;&gt;&lt;font color=&quot;#ff0000&quot;&gt;GET&lt;/font&gt;&lt;/span&gt;&lt;/div&gt;&lt;div style=&quot;&quot;&gt;&lt;span style=&quot;background-color: rgb(255, 255, 255);&quot;&gt;Ressource &lt;b&gt;SDOTask &lt;/b&gt;avec paramètres lastUpdated à J-1&lt;/span&gt;&lt;/div&gt;&lt;div style=&quot;&quot;&gt;&lt;span style=&quot;background-color: rgb(255, 255, 255);&quot;&gt;Token d&#39;authentification&lt;/span&gt;&lt;br&gt;&lt;/div&gt;" style="text;html=1;align=left;verticalAlign=middle;resizable=0;points=[];autosize=1;strokeColor=none;fillColor=none;fontSize=11;fontFamily=Helvetica;fontColor=#330000;" parent="1" vertex="1">
          <mxGeometry x="300" y="1496" width="300" height="70" as="geometry" />
        </mxCell>
        <mxCell id="Fw0xiVRTGZyl2yXm3xrn-62" value="&lt;div style=&quot;&quot;&gt;&lt;span style=&quot;background-color: rgb(255, 255, 255); color: rgb(51, 0, 0);&quot;&gt;Flux SDO 3.2 : ResultatRechercheNotificationESMS&lt;/span&gt;&lt;/div&gt;&lt;span style=&quot;background-color: rgb(255, 255, 255);&quot;&gt;&lt;div style=&quot;&quot;&gt;200 OK&lt;/div&gt;&lt;div style=&quot;color: rgb(51, 0, 0);&quot;&gt;Id technique de la ou des ressources &lt;b&gt;SDOTask &lt;/b&gt;dans un bundle&amp;nbsp;&lt;/div&gt;&lt;div style=&quot;color: rgb(51, 0, 0);&quot;&gt;&lt;b&gt;SDOBundleResultatRechercheNotificationESMS&lt;/b&gt;&lt;/div&gt;&lt;/span&gt;" style="text;html=1;align=left;verticalAlign=middle;resizable=0;points=[];autosize=1;strokeColor=none;fillColor=none;fontSize=11;fontFamily=Helvetica;fontColor=#FF0000;" parent="1" vertex="1">
          <mxGeometry x="300" y="1558" width="340" height="70" as="geometry" />
        </mxCell>
        <mxCell id="Fw0xiVRTGZyl2yXm3xrn-92" value="" style="endArrow=classic;html=1;rounded=0;exitX=1.011;exitY=0.102;exitDx=0;exitDy=0;exitPerimeter=0;entryX=0.056;entryY=0.102;entryDx=0;entryDy=0;entryPerimeter=0;" parent="1" source="Fw0xiVRTGZyl2yXm3xrn-45" target="Fw0xiVRTGZyl2yXm3xrn-91" edge="1">
          <mxGeometry width="50" height="50" relative="1" as="geometry">
            <mxPoint x="530" y="224" as="sourcePoint" />
            <mxPoint x="580" y="174" as="targetPoint" />
          </mxGeometry>
        </mxCell>
        <mxCell id="Fw0xiVRTGZyl2yXm3xrn-93" value="" style="html=1;verticalAlign=bottom;endArrow=open;dashed=1;endSize=8;rounded=0;exitX=0.056;exitY=0.959;exitDx=0;exitDy=0;exitPerimeter=0;entryX=1.035;entryY=0.985;entryDx=0;entryDy=0;entryPerimeter=0;" parent="1" source="Fw0xiVRTGZyl2yXm3xrn-91" target="Fw0xiVRTGZyl2yXm3xrn-45" edge="1">
          <mxGeometry relative="1" as="geometry">
            <mxPoint x="670" y="254" as="sourcePoint" />
            <mxPoint x="590" y="254" as="targetPoint" />
          </mxGeometry>
        </mxCell>
        <mxCell id="Fw0xiVRTGZyl2yXm3xrn-124" value="&lt;font style=&quot;font-size: 14px;&quot;&gt;&lt;b&gt;Processus&lt;/b&gt;&lt;br&gt;Transmission et récupération&lt;br&gt;des dossiers d&#39;orientation&lt;/font&gt;" style="text;html=1;align=center;verticalAlign=middle;resizable=0;points=[];autosize=1;strokeColor=none;fillColor=none;fontSize=18;" parent="1" vertex="1">
          <mxGeometry x="43" y="271" width="200" height="80" as="geometry" />
        </mxCell>
        <mxCell id="Fw0xiVRTGZyl2yXm3xrn-126" value="&lt;font style=&quot;font-size: 14px;&quot;&gt;&lt;b&gt;Processus&lt;br&gt;&lt;/b&gt;Transmettre les informations &lt;br&gt;de suivi du parcours des &lt;br&gt;personnes orientées dans l&#39;ESMS&lt;/font&gt;" style="text;html=1;align=center;verticalAlign=middle;resizable=0;points=[];autosize=1;strokeColor=none;fillColor=none;fontSize=18;" parent="1" vertex="1">
          <mxGeometry x="28" y="1446" width="230" height="100" as="geometry" />
        </mxCell>
        <mxCell id="Fw0xiVRTGZyl2yXm3xrn-140" value="" style="html=1;points=[];perimeter=orthogonalPerimeter;rounded=0;shadow=0;comic=0;labelBackgroundColor=none;strokeWidth=1;fontFamily=Verdana;fontSize=12;align=center;fillColor=#ffe6cc;strokeColor=#d79b00;" parent="1" vertex="1">
          <mxGeometry x="1316" y="268" width="10" height="70" as="geometry" />
        </mxCell>
        <mxCell id="Fw0xiVRTGZyl2yXm3xrn-143" value="" style="html=1;verticalAlign=bottom;endArrow=block;labelBackgroundColor=none;fontFamily=Verdana;fontSize=12;edgeStyle=elbowEdgeStyle;elbow=vertical;exitX=0;exitY=0.014;exitDx=0;exitDy=0;exitPerimeter=0;entryX=1.2;entryY=0.016;entryDx=0;entryDy=0;entryPerimeter=0;" parent="1" source="Fw0xiVRTGZyl2yXm3xrn-140" target="Fw0xiVRTGZyl2yXm3xrn-142" edge="1">
          <mxGeometry x="-0.483" y="-27" relative="1" as="geometry">
            <mxPoint x="955" y="358" as="sourcePoint" />
            <mxPoint x="815" y="275" as="targetPoint" />
            <mxPoint as="offset" />
          </mxGeometry>
        </mxCell>
        <mxCell id="Fw0xiVRTGZyl2yXm3xrn-144" value="" style="html=1;verticalAlign=bottom;endArrow=open;dashed=1;endSize=8;rounded=0;fontColor=#FF0000;exitX=1.3;exitY=1;exitDx=0;exitDy=0;exitPerimeter=0;entryX=0;entryY=0.986;entryDx=0;entryDy=0;entryPerimeter=0;" parent="1" source="Fw0xiVRTGZyl2yXm3xrn-142" target="Fw0xiVRTGZyl2yXm3xrn-140" edge="1">
          <mxGeometry relative="1" as="geometry">
            <mxPoint x="1015" y="348" as="sourcePoint" />
            <mxPoint x="1495" y="338" as="targetPoint" />
          </mxGeometry>
        </mxCell>
        <mxCell id="Fw0xiVRTGZyl2yXm3xrn-145" value="&lt;div style=&quot;&quot;&gt;&lt;span style=&quot;color: rgb(0, 0, 0); background-color: initial;&quot;&gt;Flux ESMS 1.1 : RecherchePersonneOrienteeDecision&lt;/span&gt;&lt;/div&gt;&lt;div style=&quot;&quot;&gt;&lt;span style=&quot;background-color: initial;&quot;&gt;&lt;font color=&quot;#ff0000&quot;&gt;GET&lt;/font&gt;&lt;/span&gt;&lt;/div&gt;&lt;div style=&quot;color: rgb(0, 0, 0);&quot;&gt;&lt;span style=&quot;background-color: initial;&quot;&gt;(Ressource &lt;b&gt;ESMSDocumentReference &lt;/b&gt;avec type=57830-2, _lastUpdated à J-1 et _elements=id)&lt;/span&gt;&lt;/div&gt;" style="text;html=1;align=left;verticalAlign=middle;resizable=0;points=[];autosize=1;strokeColor=none;fillColor=none;fontSize=11;fontFamily=Helvetica;fontColor=#330000;" parent="1" vertex="1">
          <mxGeometry x="810" y="214" width="500" height="50" as="geometry" />
        </mxCell>
        <mxCell id="Fw0xiVRTGZyl2yXm3xrn-146" value="&lt;div style=&quot;&quot;&gt;&lt;span style=&quot;background-color: rgb(255, 255, 255); color: rgb(51, 0, 0);&quot;&gt;Flux ESMS 1.2 : RésultatRecherchePersonneOrienteeDecision&lt;/span&gt;&lt;/div&gt;&lt;span style=&quot;background-color: rgb(255, 255, 255);&quot;&gt;&lt;div style=&quot;&quot;&gt;200 OK &lt;font color=&quot;#330000&quot;&gt;(filtre utilisant le token d&#39;authentification de l&#39;ESMS concerné)&lt;/font&gt;&lt;/div&gt;&lt;div style=&quot;color: rgb(51, 0, 0);&quot;&gt;Id technique de la ou des ressources &lt;b&gt;SDODocumentReference &lt;/b&gt;dans un bundle&lt;/div&gt;&lt;div style=&quot;color: rgb(51, 0, 0);&quot;&gt;&lt;b&gt;ESMSBundleResultatRechercheDecisionEvaluation&lt;/b&gt;&lt;br&gt;&lt;/div&gt;&lt;/span&gt;" style="text;html=1;align=left;verticalAlign=middle;resizable=0;points=[];autosize=1;strokeColor=none;fillColor=none;fontSize=11;fontFamily=Helvetica;fontColor=#FF0000;" parent="1" vertex="1">
          <mxGeometry x="810" y="276" width="420" height="70" as="geometry" />
        </mxCell>
        <mxCell id="Fw0xiVRTGZyl2yXm3xrn-148" value="" style="html=1;verticalAlign=bottom;endArrow=block;labelBackgroundColor=none;fontFamily=Verdana;fontSize=12;edgeStyle=elbowEdgeStyle;elbow=vertical;exitX=0.1;exitY=0.114;exitDx=0;exitDy=0;exitPerimeter=0;entryX=1.133;entryY=0.071;entryDx=0;entryDy=0;entryPerimeter=0;" parent="1" source="Fw0xiVRTGZyl2yXm3xrn-141" target="Fw0xiVRTGZyl2yXm3xrn-147" edge="1">
          <mxGeometry x="-0.483" y="-27" relative="1" as="geometry">
            <mxPoint x="1308" y="407.1" as="sourcePoint" />
            <mxPoint x="793.6700000000001" y="408.69999999999993" as="targetPoint" />
            <mxPoint as="offset" />
          </mxGeometry>
        </mxCell>
        <mxCell id="Fw0xiVRTGZyl2yXm3xrn-149" value="" style="html=1;verticalAlign=bottom;endArrow=open;dashed=1;endSize=8;rounded=0;fontColor=#FF0000;exitX=1.3;exitY=1;exitDx=0;exitDy=0;exitPerimeter=0;entryX=0.1;entryY=0.983;entryDx=0;entryDy=0;entryPerimeter=0;" parent="1" source="Fw0xiVRTGZyl2yXm3xrn-147" target="Fw0xiVRTGZyl2yXm3xrn-141" edge="1">
          <mxGeometry relative="1" as="geometry">
            <mxPoint x="1015" y="483" as="sourcePoint" />
            <mxPoint x="935" y="483" as="targetPoint" />
          </mxGeometry>
        </mxCell>
        <mxCell id="Fw0xiVRTGZyl2yXm3xrn-150" value="&lt;div style=&quot;&quot;&gt;&lt;span style=&quot;color: rgb(0, 0, 0); background-color: initial;&quot;&gt;Flux ESMS 1.3 : ConsultationPersonneOrienteeDecision&lt;/span&gt;&lt;/div&gt;&lt;div style=&quot;&quot;&gt;&lt;span style=&quot;background-color: initial;&quot;&gt;&lt;font color=&quot;#ff0000&quot;&gt;GET&lt;/font&gt;&lt;/span&gt;&lt;/div&gt;&lt;div style=&quot;color: rgb(0, 0, 0);&quot;&gt;&lt;span style=&quot;background-color: initial;&quot;&gt;(Ressource &lt;b&gt;ESMSDocumentReference &lt;/b&gt;avec id transmis dans le flux 1.2)&lt;/span&gt;&lt;/div&gt;" style="text;html=1;align=left;verticalAlign=middle;resizable=0;points=[];autosize=1;strokeColor=none;fillColor=none;fontSize=11;fontFamily=Helvetica;fontColor=#330000;" parent="1" vertex="1">
          <mxGeometry x="810" y="357" width="380" height="50" as="geometry" />
        </mxCell>
        <mxCell id="Fw0xiVRTGZyl2yXm3xrn-118" value="" style="html=1;verticalAlign=bottom;endArrow=open;dashed=1;endSize=8;rounded=0;exitX=0.056;exitY=0.959;exitDx=0;exitDy=0;exitPerimeter=0;entryX=1.035;entryY=0.985;entryDx=0;entryDy=0;entryPerimeter=0;" parent="1" source="Fw0xiVRTGZyl2yXm3xrn-116" target="Fw0xiVRTGZyl2yXm3xrn-117" edge="1">
          <mxGeometry relative="1" as="geometry">
            <mxPoint x="-634" y="1639" as="sourcePoint" />
            <mxPoint x="-714" y="1639" as="targetPoint" />
          </mxGeometry>
        </mxCell>
        <mxCell id="Fw0xiVRTGZyl2yXm3xrn-119" value="" style="endArrow=classic;html=1;rounded=0;exitX=1.011;exitY=0.102;exitDx=0;exitDy=0;exitPerimeter=0;entryX=0.056;entryY=0.102;entryDx=0;entryDy=0;entryPerimeter=0;" parent="1" source="Fw0xiVRTGZyl2yXm3xrn-117" target="Fw0xiVRTGZyl2yXm3xrn-116" edge="1">
          <mxGeometry width="50" height="50" relative="1" as="geometry">
            <mxPoint x="-774" y="1609" as="sourcePoint" />
            <mxPoint x="-724" y="1559" as="targetPoint" />
          </mxGeometry>
        </mxCell>
        <mxCell id="Fw0xiVRTGZyl2yXm3xrn-166" value="" style="html=1;verticalAlign=bottom;endArrow=block;labelBackgroundColor=none;fontFamily=Verdana;fontSize=12;edgeStyle=elbowEdgeStyle;elbow=vertical;exitX=0;exitY=0.03;exitDx=0;exitDy=0;exitPerimeter=0;entryX=1.2;entryY=0.016;entryDx=0;entryDy=0;entryPerimeter=0;" parent="1" source="Fw0xiVRTGZyl2yXm3xrn-164" target="Fw0xiVRTGZyl2yXm3xrn-165" edge="1">
          <mxGeometry x="-0.483" y="-27" relative="1" as="geometry">
            <mxPoint x="963" y="650" as="sourcePoint" />
            <mxPoint x="823" y="567" as="targetPoint" />
            <mxPoint as="offset" />
          </mxGeometry>
        </mxCell>
        <mxCell id="Fw0xiVRTGZyl2yXm3xrn-167" value="" style="html=1;verticalAlign=bottom;endArrow=open;dashed=1;endSize=8;rounded=0;fontColor=#FF0000;exitX=1.3;exitY=1;exitDx=0;exitDy=0;exitPerimeter=0;entryX=-0.1;entryY=1;entryDx=0;entryDy=0;entryPerimeter=0;" parent="1" source="Fw0xiVRTGZyl2yXm3xrn-165" target="Fw0xiVRTGZyl2yXm3xrn-164" edge="1">
          <mxGeometry relative="1" as="geometry">
            <mxPoint x="1023" y="640" as="sourcePoint" />
            <mxPoint x="1153" y="680" as="targetPoint" />
          </mxGeometry>
        </mxCell>
        <mxCell id="Fw0xiVRTGZyl2yXm3xrn-168" value="&lt;div style=&quot;&quot;&gt;&lt;span style=&quot;color: rgb(0, 0, 0); background-color: initial;&quot;&gt;Flux ESMS 2 : Accord&lt;/span&gt;&lt;/div&gt;&lt;div style=&quot;&quot;&gt;&lt;font style=&quot;&quot; color=&quot;#ff0000&quot;&gt;POST&lt;/font&gt;&lt;/div&gt;&lt;div style=&quot;color: rgb(0, 0, 0);&quot;&gt;&lt;span style=&quot;background-color: initial;&quot;&gt;Ressource Consent&lt;/span&gt;&lt;/div&gt;" style="text;html=1;align=left;verticalAlign=middle;resizable=0;points=[];autosize=1;strokeColor=none;fillColor=none;fontSize=11;fontFamily=Helvetica;fontColor=#330000;" parent="1" vertex="1">
          <mxGeometry x="810" y="514" width="130" height="50" as="geometry" />
        </mxCell>
        <mxCell id="Fw0xiVRTGZyl2yXm3xrn-169" value="&lt;div style=&quot;&quot;&gt;&lt;span style=&quot;background-color: initial;&quot;&gt;201 Created&lt;/span&gt;&lt;br&gt;&lt;/div&gt;" style="text;html=1;align=left;verticalAlign=middle;resizable=0;points=[];autosize=1;strokeColor=none;fillColor=none;fontSize=11;fontFamily=Helvetica;fontColor=#FF0000;" parent="1" vertex="1">
          <mxGeometry x="810" y="600" width="80" height="30" as="geometry" />
        </mxCell>
        <mxCell id="Fw0xiVRTGZyl2yXm3xrn-179" value="" style="html=1;verticalAlign=bottom;endArrow=block;labelBackgroundColor=none;fontFamily=Verdana;fontSize=12;edgeStyle=elbowEdgeStyle;elbow=vertical;exitX=0;exitY=0.03;exitDx=0;exitDy=0;exitPerimeter=0;entryX=1.2;entryY=0.016;entryDx=0;entryDy=0;entryPerimeter=0;" parent="1" source="Fw0xiVRTGZyl2yXm3xrn-178" target="Fw0xiVRTGZyl2yXm3xrn-177" edge="1">
          <mxGeometry x="-0.483" y="-27" relative="1" as="geometry">
            <mxPoint x="963" y="780" as="sourcePoint" />
            <mxPoint x="823" y="697" as="targetPoint" />
            <mxPoint as="offset" />
          </mxGeometry>
        </mxCell>
        <mxCell id="Fw0xiVRTGZyl2yXm3xrn-180" value="" style="html=1;verticalAlign=bottom;endArrow=open;dashed=1;endSize=8;rounded=0;fontColor=#FF0000;exitX=1.211;exitY=0.98;exitDx=0;exitDy=0;exitPerimeter=0;entryX=-0.165;entryY=0.983;entryDx=0;entryDy=0;entryPerimeter=0;" parent="1" source="Fw0xiVRTGZyl2yXm3xrn-177" target="Fw0xiVRTGZyl2yXm3xrn-178" edge="1">
          <mxGeometry relative="1" as="geometry">
            <mxPoint x="720" y="761" as="sourcePoint" />
            <mxPoint x="1300" y="759" as="targetPoint" />
          </mxGeometry>
        </mxCell>
        <mxCell id="Fw0xiVRTGZyl2yXm3xrn-181" value="&lt;div style=&quot;&quot;&gt;&lt;span style=&quot;color: rgb(0, 0, 0);&quot;&gt;Flux ESMS 3.1 : RechercheEvaluation&lt;/span&gt;&lt;/div&gt;&lt;div style=&quot;&quot;&gt;&lt;font style=&quot;&quot; color=&quot;#ff0000&quot;&gt;GET&lt;/font&gt;&lt;/div&gt;&lt;div style=&quot;color: rgb(0, 0, 0);&quot;&gt;Ressource &lt;b&gt;ESMSDocumentReference &lt;/b&gt;avec identifier=idNat_Decision, type=51848-0&lt;br&gt;&lt;/div&gt;" style="text;html=1;align=left;verticalAlign=middle;resizable=0;points=[];autosize=1;strokeColor=none;fillColor=none;fontSize=11;fontFamily=Helvetica;fontColor=#330000;" parent="1" vertex="1">
          <mxGeometry x="810" y="644" width="440" height="50" as="geometry" />
        </mxCell>
        <mxCell id="Fw0xiVRTGZyl2yXm3xrn-182" value="&lt;div style=&quot;&quot;&gt;&lt;font style=&quot;&quot; color=&quot;#000000&quot;&gt;Flux ESMS 3.2 : ResultatEvaluation&lt;/font&gt;&lt;/div&gt;&lt;div style=&quot;&quot;&gt;200 OK&lt;/div&gt;&lt;div style=&quot;&quot;&gt;&lt;font color=&quot;#000000&quot;&gt;Ressource &lt;b&gt;ESMSdocumentReference &lt;/b&gt;avec&lt;b&gt; CDA portant l&#39;Evaluation&amp;nbsp;&lt;/b&gt;&lt;/font&gt;&lt;/div&gt;&lt;div style=&quot;&quot;&gt;&lt;font color=&quot;#000000&quot;&gt;dans un bundle&amp;nbsp;&lt;b&gt;ESMSBundleResultatRechercheDecisionEvaluation&lt;/b&gt;&lt;/font&gt;&lt;/div&gt;&lt;div style=&quot;&quot;&gt;&lt;font style=&quot;&quot; color=&quot;#000000&quot;&gt;Token d&#39;authentification et vérification de l&#39;accord&lt;/font&gt;&lt;/div&gt;" style="text;html=1;align=left;verticalAlign=middle;resizable=0;points=[];autosize=1;strokeColor=none;fillColor=none;fontSize=11;fontFamily=Helvetica;fontColor=#FF0000;" parent="1" vertex="1">
          <mxGeometry x="810" y="686" width="380" height="80" as="geometry" />
        </mxCell>
        <mxCell id="Fw0xiVRTGZyl2yXm3xrn-185" value="" style="html=1;verticalAlign=bottom;endArrow=block;labelBackgroundColor=none;fontFamily=Verdana;fontSize=12;edgeStyle=elbowEdgeStyle;elbow=vertical;exitX=0;exitY=0.03;exitDx=0;exitDy=0;exitPerimeter=0;entryX=1.2;entryY=0.016;entryDx=0;entryDy=0;entryPerimeter=0;" parent="1" source="Fw0xiVRTGZyl2yXm3xrn-183" target="Fw0xiVRTGZyl2yXm3xrn-184" edge="1">
          <mxGeometry x="-0.483" y="-27" relative="1" as="geometry">
            <mxPoint x="955" y="1502" as="sourcePoint" />
            <mxPoint x="815" y="1419" as="targetPoint" />
            <mxPoint as="offset" />
          </mxGeometry>
        </mxCell>
        <mxCell id="Fw0xiVRTGZyl2yXm3xrn-187" value="&lt;div style=&quot;&quot;&gt;&lt;span style=&quot;color: rgb(0, 0, 0); background-color: initial;&quot;&gt;Flux ESMS 4 : StatutPersonneOrientee&lt;/span&gt;&lt;/div&gt;&lt;div style=&quot;&quot;&gt;&lt;span style=&quot;background-color: initial;&quot;&gt;&lt;font color=&quot;#ff0000&quot;&gt;POST&lt;/font&gt;&lt;/span&gt;&lt;/div&gt;&lt;div style=&quot;color: rgb(0, 0, 0);&quot;&gt;&lt;span style=&quot;background-color: initial;&quot;&gt;Ressource &lt;b&gt;SDOTask &lt;/b&gt;contenant le statut de l&#39;ESMS,&amp;nbsp;&lt;/span&gt;&lt;/div&gt;&lt;div style=&quot;color: rgb(0, 0, 0);&quot;&gt;&lt;span style=&quot;background-color: initial;&quot;&gt;Token d&#39;authentification&lt;/span&gt;&lt;/div&gt;" style="text;html=1;align=left;verticalAlign=middle;resizable=0;points=[];autosize=1;strokeColor=none;fillColor=none;fontSize=11;fontFamily=Helvetica;fontColor=#330000;" parent="1" vertex="1">
          <mxGeometry x="810" y="1353" width="280" height="70" as="geometry" />
        </mxCell>
        <mxCell id="Fw0xiVRTGZyl2yXm3xrn-188" value="&lt;div style=&quot;&quot;&gt;&lt;span style=&quot;background-color: rgb(255, 255, 255);&quot;&gt;201 Created&lt;/span&gt;&lt;/div&gt;" style="text;html=1;align=left;verticalAlign=middle;resizable=0;points=[];autosize=1;strokeColor=none;fillColor=none;fontSize=11;fontFamily=Helvetica;fontColor=#FF0000;" parent="1" vertex="1">
          <mxGeometry x="810" y="1457" width="80" height="30" as="geometry" />
        </mxCell>
        <mxCell id="Fw0xiVRTGZyl2yXm3xrn-191" value="" style="html=1;verticalAlign=bottom;endArrow=block;labelBackgroundColor=none;fontFamily=Verdana;fontSize=12;edgeStyle=elbowEdgeStyle;elbow=vertical;exitX=0.035;exitY=0.07;exitDx=0;exitDy=0;exitPerimeter=0;entryX=1.2;entryY=0.016;entryDx=0;entryDy=0;entryPerimeter=0;" parent="1" source="Fw0xiVRTGZyl2yXm3xrn-189" edge="1">
          <mxGeometry x="-0.483" y="-27" relative="1" as="geometry">
            <mxPoint x="1284" y="1557.98" as="sourcePoint" />
            <mxPoint x="795" y="1558.12" as="targetPoint" />
            <mxPoint as="offset" />
          </mxGeometry>
        </mxCell>
        <mxCell id="Fw0xiVRTGZyl2yXm3xrn-192" value="" style="html=1;verticalAlign=bottom;endArrow=open;dashed=1;endSize=8;rounded=0;fontColor=#FF0000;exitX=1.3;exitY=1;exitDx=0;exitDy=0;exitPerimeter=0;entryX=0.015;entryY=0.957;entryDx=0;entryDy=0;entryPerimeter=0;" parent="1" target="Fw0xiVRTGZyl2yXm3xrn-189" edge="1">
          <mxGeometry relative="1" as="geometry">
            <mxPoint x="796" y="1620" as="sourcePoint" />
            <mxPoint x="1284" y="1619.02" as="targetPoint" />
          </mxGeometry>
        </mxCell>
        <mxCell id="Fw0xiVRTGZyl2yXm3xrn-193" value="&lt;div style=&quot;&quot;&gt;&lt;span style=&quot;color: rgb(0, 0, 0); background-color: initial;&quot;&gt;Flux ESMS 5.1 : RechercheStatut&lt;/span&gt;&lt;/div&gt;&lt;div style=&quot;&quot;&gt;&lt;span style=&quot;background-color: initial;&quot;&gt;&lt;font color=&quot;#ff0000&quot;&gt;GET&lt;/font&gt;&lt;/span&gt;&lt;/div&gt;&lt;div style=&quot;&quot;&gt;&lt;font style=&quot;&quot; color=&quot;#000000&quot;&gt;Ressource &lt;b&gt;SDOTask &lt;/b&gt;avec lastUpdated à J-1&amp;nbsp;&lt;/font&gt;&lt;/div&gt;" style="text;html=1;align=left;verticalAlign=middle;resizable=0;points=[];autosize=1;strokeColor=none;fillColor=none;fontSize=11;fontFamily=Helvetica;fontColor=#330000;" parent="1" vertex="1">
          <mxGeometry x="810" y="1508" width="250" height="50" as="geometry" />
        </mxCell>
        <mxCell id="Fw0xiVRTGZyl2yXm3xrn-194" value="&lt;div style=&quot;&quot;&gt;&lt;span style=&quot;background-color: rgb(255, 255, 255); color: rgb(51, 0, 0);&quot;&gt;Flux ESMS 5.2 : RésultatStatut&lt;/span&gt;&lt;/div&gt;&lt;span style=&quot;background-color: rgb(255, 255, 255);&quot;&gt;&lt;div style=&quot;&quot;&gt;200 OK&lt;/div&gt;&lt;div style=&quot;color: rgb(51, 0, 0);&quot;&gt;Id technique de la ou des ressources &lt;b&gt;SDOTask &lt;/b&gt;dans un bundle&lt;/div&gt;&lt;div style=&quot;&quot;&gt;&lt;font color=&quot;#330000&quot;&gt;&lt;b&gt;SDOBundleResultatRechercheNotificationESMS&lt;/b&gt;&lt;/font&gt;&lt;br&gt;&lt;/div&gt;&lt;/span&gt;" style="text;html=1;align=left;verticalAlign=middle;resizable=0;points=[];autosize=1;strokeColor=none;fillColor=none;fontSize=11;fontFamily=Helvetica;fontColor=#FF0000;" parent="1" vertex="1">
          <mxGeometry x="810" y="1556" width="330" height="70" as="geometry" />
        </mxCell>
        <mxCell id="Rp18wwWJfiMIqysGZdYJ-3" value="" style="html=1;verticalAlign=bottom;endArrow=open;dashed=1;endSize=8;rounded=0;fontColor=#FF0000;exitX=1.3;exitY=1;exitDx=0;exitDy=0;exitPerimeter=0;entryX=-0.071;entryY=0.943;entryDx=0;entryDy=0;entryPerimeter=0;" parent="1" target="Fw0xiVRTGZyl2yXm3xrn-183" edge="1">
          <mxGeometry relative="1" as="geometry">
            <mxPoint x="798" y="1479.98" as="sourcePoint" />
            <mxPoint x="1286" y="1479" as="targetPoint" />
          </mxGeometry>
        </mxCell>
        <mxCell id="Fw0xiVRTGZyl2yXm3xrn-108" value="" style="html=1;points=[];perimeter=orthogonalPerimeter;rounded=0;shadow=0;comic=0;labelBackgroundColor=none;strokeWidth=1;fontFamily=Verdana;fontSize=12;align=center;fillColor=#d5e8d4;strokeColor=#82b366;" parent="1" vertex="1">
          <mxGeometry x="273" y="852.5" width="10" height="70" as="geometry" />
        </mxCell>
        <mxCell id="Fw0xiVRTGZyl2yXm3xrn-54" value="&lt;div style=&quot;&quot;&gt;&lt;span style=&quot;color: rgb(0, 0, 0); background-color: initial;&quot;&gt;Flux SDO 2.1: MAJDossier&lt;/span&gt;&lt;/div&gt;&lt;div&gt;&lt;font style=&quot;&quot; color=&quot;#ff0000&quot;&gt;PATCH&lt;/font&gt;&lt;/div&gt;&lt;div style=&quot;&quot;&gt;&lt;span style=&quot;background-color: initial; color: rgb(0, 0, 0);&quot;&gt;Ressource &lt;b&gt;SDODocumentReference &lt;/b&gt;avec CDA mis à jour, id transmis dans le flux 1.2,&amp;nbsp;&lt;/span&gt;&lt;/div&gt;&lt;div style=&quot;&quot;&gt;&lt;span style=&quot;background-color: initial; color: rgb(0, 0, 0);&quot;&gt;Token d&#39;authentification&lt;/span&gt;&lt;br&gt;&lt;/div&gt;" style="text;html=1;align=left;verticalAlign=middle;resizable=0;points=[];autosize=1;strokeColor=none;fillColor=none;fontSize=11;fontFamily=Helvetica;fontColor=#330000;" parent="1" vertex="1">
          <mxGeometry x="299" y="796" width="450" height="70" as="geometry" />
        </mxCell>
        <mxCell id="Fw0xiVRTGZyl2yXm3xrn-55" value="&lt;div style=&quot;&quot;&gt;&lt;span style=&quot;background-color: rgb(255, 255, 255); color: rgb(51, 0, 0);&quot;&gt;Flux SDO 2.2 : ResultatMAJDossier&lt;/span&gt;&lt;/div&gt;&lt;span style=&quot;background-color: rgb(255, 255, 255);&quot;&gt;&lt;div style=&quot;&quot;&gt;200 OK&lt;/div&gt;&lt;/span&gt;" style="text;html=1;align=left;verticalAlign=middle;resizable=0;points=[];autosize=1;strokeColor=none;fillColor=none;fontSize=11;fontFamily=Helvetica;fontColor=#FF0000;" parent="1" vertex="1">
          <mxGeometry x="299" y="887" width="200" height="40" as="geometry" />
        </mxCell>
        <mxCell id="Fw0xiVRTGZyl2yXm3xrn-125" value="&lt;font style=&quot;font-size: 14px;&quot;&gt;&lt;b&gt;Processus&lt;/b&gt;&lt;br style=&quot;&quot;&gt;Mettre à jour les dossiers des &lt;br&gt;personnes orientées&lt;/font&gt;" style="text;html=1;align=center;verticalAlign=middle;resizable=0;points=[];autosize=1;strokeColor=none;fillColor=none;fontSize=18;" parent="1" vertex="1">
          <mxGeometry x="38" y="1016" width="210" height="80" as="geometry" />
        </mxCell>
        <mxCell id="Fw0xiVRTGZyl2yXm3xrn-110" value="" style="html=1;verticalAlign=bottom;endArrow=open;dashed=1;endSize=8;rounded=0;exitX=0.056;exitY=0.959;exitDx=0;exitDy=0;exitPerimeter=0;entryX=1.035;entryY=0.985;entryDx=0;entryDy=0;entryPerimeter=0;" parent="1" source="Fw0xiVRTGZyl2yXm3xrn-107" target="Fw0xiVRTGZyl2yXm3xrn-108" edge="1">
          <mxGeometry relative="1" as="geometry">
            <mxPoint x="674" y="963" as="sourcePoint" />
            <mxPoint x="594" y="963" as="targetPoint" />
          </mxGeometry>
        </mxCell>
        <mxCell id="Fw0xiVRTGZyl2yXm3xrn-109" value="" style="endArrow=classic;html=1;rounded=0;exitX=1.011;exitY=0.102;exitDx=0;exitDy=0;exitPerimeter=0;entryX=0.056;entryY=0.102;entryDx=0;entryDy=0;entryPerimeter=0;" parent="1" source="Fw0xiVRTGZyl2yXm3xrn-108" target="Fw0xiVRTGZyl2yXm3xrn-107" edge="1">
          <mxGeometry width="50" height="50" relative="1" as="geometry">
            <mxPoint x="534" y="933" as="sourcePoint" />
            <mxPoint x="584" y="883" as="targetPoint" />
          </mxGeometry>
        </mxCell>
        <mxCell id="5Fo1NMAUC6NLCG_92BuU-1" value="" style="html=1;points=[];perimeter=orthogonalPerimeter;rounded=0;shadow=0;comic=0;labelBackgroundColor=none;strokeWidth=1;fontFamily=Verdana;fontSize=12;align=center;fillColor=#dae8fc;strokeColor=#6c8ebf;" parent="1" vertex="1">
          <mxGeometry x="786" y="1110" width="10" height="70" as="geometry" />
        </mxCell>
        <mxCell id="5Fo1NMAUC6NLCG_92BuU-3" value="" style="html=1;points=[];perimeter=orthogonalPerimeter;rounded=0;shadow=0;comic=0;labelBackgroundColor=none;strokeWidth=1;fontFamily=Verdana;fontSize=12;align=center;fillColor=#dae8fc;strokeColor=#6c8ebf;" parent="1" vertex="1">
          <mxGeometry x="786" y="1237" width="10" height="70" as="geometry" />
        </mxCell>
        <mxCell id="5Fo1NMAUC6NLCG_92BuU-4" value="" style="html=1;points=[];perimeter=orthogonalPerimeter;rounded=0;shadow=0;comic=0;labelBackgroundColor=none;strokeWidth=1;fontFamily=Verdana;fontSize=12;align=center;fillColor=#dae8fc;strokeColor=#6c8ebf;" parent="1" vertex="1">
          <mxGeometry x="786" y="975" width="10" height="70" as="geometry" />
        </mxCell>
        <mxCell id="5Fo1NMAUC6NLCG_92BuU-9" value="" style="html=1;verticalAlign=bottom;endArrow=block;labelBackgroundColor=none;fontFamily=Verdana;fontSize=12;edgeStyle=elbowEdgeStyle;elbow=vertical;exitX=0;exitY=0.014;exitDx=0;exitDy=0;exitPerimeter=0;entryX=1.2;entryY=0.016;entryDx=0;entryDy=0;entryPerimeter=0;" parent="1" source="5Fo1NMAUC6NLCG_92BuU-7" target="5Fo1NMAUC6NLCG_92BuU-4" edge="1">
          <mxGeometry x="-0.483" y="-27" relative="1" as="geometry">
            <mxPoint x="956" y="1065" as="sourcePoint" />
            <mxPoint x="816" y="982" as="targetPoint" />
            <mxPoint as="offset" />
          </mxGeometry>
        </mxCell>
        <mxCell id="5Fo1NMAUC6NLCG_92BuU-10" value="" style="html=1;verticalAlign=bottom;endArrow=open;dashed=1;endSize=8;rounded=0;fontColor=#FF0000;exitX=1.3;exitY=1;exitDx=0;exitDy=0;exitPerimeter=0;entryX=0;entryY=0.986;entryDx=0;entryDy=0;entryPerimeter=0;" parent="1" source="5Fo1NMAUC6NLCG_92BuU-4" target="5Fo1NMAUC6NLCG_92BuU-7" edge="1">
          <mxGeometry relative="1" as="geometry">
            <mxPoint x="1016" y="1055" as="sourcePoint" />
            <mxPoint x="1496" y="1045" as="targetPoint" />
          </mxGeometry>
        </mxCell>
        <mxCell id="5Fo1NMAUC6NLCG_92BuU-11" value="&lt;div style=&quot;&quot;&gt;&lt;span style=&quot;color: rgb(0, 0, 0); background-color: initial;&quot;&gt;Flux ESMS 1.1 : RecherchePersonneOrienteeDecision&lt;/span&gt;&lt;/div&gt;&lt;div style=&quot;&quot;&gt;&lt;span style=&quot;background-color: initial;&quot;&gt;&lt;font color=&quot;#ff0000&quot;&gt;GET&lt;/font&gt;&lt;/span&gt;&lt;/div&gt;&lt;div style=&quot;color: rgb(0, 0, 0);&quot;&gt;&lt;span style=&quot;background-color: initial;&quot;&gt;(Ressource &lt;b&gt;ESMSDocumentReference &lt;/b&gt;avec type=57830-2, _lastUpdated à J-1 et _elements=id)&lt;/span&gt;&lt;/div&gt;" style="text;html=1;align=left;verticalAlign=middle;resizable=0;points=[];autosize=1;strokeColor=none;fillColor=none;fontSize=11;fontFamily=Helvetica;fontColor=#330000;" parent="1" vertex="1">
          <mxGeometry x="810" y="927" width="500" height="50" as="geometry" />
        </mxCell>
        <mxCell id="5Fo1NMAUC6NLCG_92BuU-12" value="&lt;div style=&quot;&quot;&gt;&lt;span style=&quot;background-color: rgb(255, 255, 255); color: rgb(51, 0, 0);&quot;&gt;Flux ESMS 1.2 : RésultatRecherchePersonneOrienteeDecision&lt;/span&gt;&lt;/div&gt;&lt;span style=&quot;background-color: rgb(255, 255, 255);&quot;&gt;&lt;div style=&quot;&quot;&gt;200 OK &lt;font color=&quot;#330000&quot;&gt;(filtre utilisant le token d&#39;authentification de l&#39;ESMS concerné)&lt;/font&gt;&lt;/div&gt;&lt;div style=&quot;color: rgb(51, 0, 0);&quot;&gt;Id technique de la ou des ressources &lt;b&gt;SDODocumentReference &lt;/b&gt;dans un bundle&lt;/div&gt;&lt;div style=&quot;color: rgb(51, 0, 0);&quot;&gt;&lt;b&gt;ESMSBundleResultatRechercheDecisionEvaluation&lt;/b&gt;&lt;br&gt;&lt;/div&gt;&lt;/span&gt;" style="text;html=1;align=left;verticalAlign=middle;resizable=0;points=[];autosize=1;strokeColor=none;fillColor=none;fontSize=11;fontFamily=Helvetica;fontColor=#FF0000;" parent="1" vertex="1">
          <mxGeometry x="810" y="983" width="420" height="70" as="geometry" />
        </mxCell>
        <mxCell id="5Fo1NMAUC6NLCG_92BuU-13" value="" style="html=1;verticalAlign=bottom;endArrow=block;labelBackgroundColor=none;fontFamily=Verdana;fontSize=12;edgeStyle=elbowEdgeStyle;elbow=vertical;exitX=0;exitY=0.03;exitDx=0;exitDy=0;exitPerimeter=0;entryX=1.2;entryY=0.016;entryDx=0;entryDy=0;entryPerimeter=0;" parent="1" source="5Fo1NMAUC6NLCG_92BuU-8" target="5Fo1NMAUC6NLCG_92BuU-1" edge="1">
          <mxGeometry x="-0.483" y="-27" relative="1" as="geometry">
            <mxPoint x="956" y="1200" as="sourcePoint" />
            <mxPoint x="816" y="1117" as="targetPoint" />
            <mxPoint as="offset" />
          </mxGeometry>
        </mxCell>
        <mxCell id="5Fo1NMAUC6NLCG_92BuU-14" value="" style="html=1;verticalAlign=bottom;endArrow=open;dashed=1;endSize=8;rounded=0;fontColor=#FF0000;exitX=1.3;exitY=1;exitDx=0;exitDy=0;exitPerimeter=0;entryX=-0.051;entryY=0.938;entryDx=0;entryDy=0;entryPerimeter=0;" parent="1" target="5Fo1NMAUC6NLCG_92BuU-8" edge="1">
          <mxGeometry relative="1" as="geometry">
            <mxPoint x="799" y="1177" as="sourcePoint" />
            <mxPoint x="1311" y="1175.81" as="targetPoint" />
          </mxGeometry>
        </mxCell>
        <mxCell id="5Fo1NMAUC6NLCG_92BuU-15" value="&lt;div style=&quot;&quot;&gt;&lt;span style=&quot;color: rgb(0, 0, 0); background-color: initial;&quot;&gt;Flux ESMS 1.3 : ConsultationPersonneOrienteeDecision&lt;/span&gt;&lt;/div&gt;&lt;div style=&quot;&quot;&gt;&lt;span style=&quot;background-color: initial;&quot;&gt;&lt;font color=&quot;#ff0000&quot;&gt;GET&lt;/font&gt;&lt;/span&gt;&lt;/div&gt;&lt;div style=&quot;color: rgb(0, 0, 0);&quot;&gt;&lt;span style=&quot;background-color: initial;&quot;&gt;(Ressource &lt;b&gt;ESMSDocumentReference &lt;/b&gt;avec id transmis dans le flux 1.2)&lt;/span&gt;&lt;/div&gt;" style="text;html=1;align=left;verticalAlign=middle;resizable=0;points=[];autosize=1;strokeColor=none;fillColor=none;fontSize=11;fontFamily=Helvetica;fontColor=#330000;" parent="1" vertex="1">
          <mxGeometry x="810" y="1064" width="380" height="50" as="geometry" />
        </mxCell>
        <mxCell id="5Fo1NMAUC6NLCG_92BuU-21" value="" style="html=1;verticalAlign=bottom;endArrow=block;labelBackgroundColor=none;fontFamily=Verdana;fontSize=12;edgeStyle=elbowEdgeStyle;elbow=vertical;exitX=0;exitY=0.03;exitDx=0;exitDy=0;exitPerimeter=0;entryX=1.2;entryY=0.016;entryDx=0;entryDy=0;entryPerimeter=0;" parent="1" source="5Fo1NMAUC6NLCG_92BuU-6" target="5Fo1NMAUC6NLCG_92BuU-3" edge="1">
          <mxGeometry x="-0.483" y="-27" relative="1" as="geometry">
            <mxPoint x="964" y="1327" as="sourcePoint" />
            <mxPoint x="824" y="1244" as="targetPoint" />
            <mxPoint as="offset" />
          </mxGeometry>
        </mxCell>
        <mxCell id="5Fo1NMAUC6NLCG_92BuU-22" value="" style="html=1;verticalAlign=bottom;endArrow=open;dashed=1;endSize=8;rounded=0;fontColor=#FF0000;exitX=1.211;exitY=0.98;exitDx=0;exitDy=0;exitPerimeter=0;entryX=-0.051;entryY=0.929;entryDx=0;entryDy=0;entryPerimeter=0;" parent="1" source="5Fo1NMAUC6NLCG_92BuU-3" target="5Fo1NMAUC6NLCG_92BuU-6" edge="1">
          <mxGeometry relative="1" as="geometry">
            <mxPoint x="721" y="1308" as="sourcePoint" />
            <mxPoint x="1250" y="1303" as="targetPoint" />
          </mxGeometry>
        </mxCell>
        <mxCell id="5Fo1NMAUC6NLCG_92BuU-23" value="&lt;div style=&quot;&quot;&gt;&lt;span style=&quot;color: rgb(0, 0, 0);&quot;&gt;Flux ESMS 3.1 : RechercheEvaluation&lt;/span&gt;&lt;/div&gt;&lt;div style=&quot;&quot;&gt;&lt;font style=&quot;&quot; color=&quot;#ff0000&quot;&gt;GET&lt;/font&gt;&lt;/div&gt;&lt;div style=&quot;color: rgb(0, 0, 0);&quot;&gt;Ressource &lt;b&gt;ESMSDocumentReference &lt;/b&gt;avec identifier=idNat_Decision, type=51848-0&lt;br&gt;&lt;/div&gt;" style="text;html=1;align=left;verticalAlign=middle;resizable=0;points=[];autosize=1;strokeColor=none;fillColor=none;fontSize=11;fontFamily=Helvetica;fontColor=#330000;" parent="1" vertex="1">
          <mxGeometry x="810" y="1191" width="440" height="50" as="geometry" />
        </mxCell>
        <mxCell id="5Fo1NMAUC6NLCG_92BuU-24" value="&lt;div style=&quot;&quot;&gt;&lt;font style=&quot;&quot; color=&quot;#000000&quot;&gt;Flux ESMS 3.2 : ResultatEvaluation&lt;/font&gt;&lt;/div&gt;&lt;div style=&quot;&quot;&gt;200 OK&lt;/div&gt;&lt;div style=&quot;&quot;&gt;&lt;font color=&quot;#000000&quot;&gt;Ressource &lt;b&gt;ESMSdocumentReference &lt;/b&gt;avec&lt;b&gt; CDA portant l&#39;Evaluation&amp;nbsp;&lt;/b&gt;&lt;/font&gt;&lt;/div&gt;&lt;div style=&quot;&quot;&gt;&lt;font color=&quot;#000000&quot;&gt;dans un bundle&amp;nbsp;&lt;b&gt;ESMSBundleResultatRechercheDecisionEvaluation&lt;/b&gt;&lt;/font&gt;&lt;/div&gt;&lt;div style=&quot;&quot;&gt;&lt;font style=&quot;&quot; color=&quot;#000000&quot;&gt;Token d&#39;authentification et vérification de l&#39;accord&lt;/font&gt;&lt;/div&gt;" style="text;html=1;align=left;verticalAlign=middle;resizable=0;points=[];autosize=1;strokeColor=none;fillColor=none;fontSize=11;fontFamily=Helvetica;fontColor=#FF0000;" parent="1" vertex="1">
          <mxGeometry x="810" y="1233" width="380" height="80" as="geometry" />
        </mxCell>
        <mxCell id="Fw0xiVRTGZyl2yXm3xrn-151" value="&lt;div style=&quot;&quot;&gt;&lt;span style=&quot;background-color: rgb(255, 255, 255); color: rgb(51, 0, 0);&quot;&gt;Flux ESMS 1.4 : ResultatConsultationPersonneOrienteeDecision&lt;/span&gt;&lt;/div&gt;&lt;div style=&quot;background-color: rgb(255, 255, 255);&quot;&gt;200 OK&lt;/div&gt;&lt;div style=&quot;color: rgb(51, 0, 0);&quot;&gt;Ressource &lt;b&gt;ESMSdocumentReference &lt;/b&gt;avec &lt;b&gt;CDA portant les données de l&#39;individu et la décision&lt;/b&gt;&lt;/div&gt;" style="text;html=1;align=left;verticalAlign=middle;resizable=0;points=[];autosize=1;strokeColor=none;fillColor=none;fontSize=11;fontFamily=Helvetica;fontColor=#FF0000;" parent="1" vertex="1">
          <mxGeometry x="810" y="420" width="520" height="50" as="geometry" />
        </mxCell>
      </root>
    </mxGraphModel>
  </diagram>
</mxfile>
